<svg xmlns="http://www.w3.org/2000/svg" fill="none" viewBox="0 0 24 24" stroke="none" width="1em" height="1em"><path fill="currentColor" d="M4 22v-5.925q0-.5.238-.95.239-.45.662-.725l1.1-.725q.175 2.1.55 3.575t1.175 3.275zm5.225-2a14.2 14.2 0 0 1-1.3-3.5 17 17 0 0 1-.425-3.825q0-3.125 1.238-5.887T12 2.6q2.025 1.425 3.263 4.188t1.237 5.887q0 1.95-.425 3.788a15.2 15.2 0 0 1-1.3 3.537zM12 13q.825 0 1.413-.587A1.92 1.92 0 0 0 14 11q0-.825-.587-1.412A1.93 1.93 0 0 0 12 9a1.9 1.9 0 0 0-1.412.588q-.585.59-.588 1.412a1.92 1.92 0 0 0 .588 1.413q.591.591 1.412.587m8 9-3.725-1.475q.8-1.8 1.175-3.275t.55-3.575l1.1.725q.425.275.663.725t.237.95z"/></svg>