<svg viewBox="0 0 170 88" fill="currentColor" stroke="none" xmlns="http://www.w3.org/2000/svg">
<path d="M43.9976 48.2808C44.2975 47.5131 45.0376 47.0081 45.8618 47.0086L66.0627 47.0227L50.7052 85.9911L32.1957 85.9782C30.7882 85.9773 29.822 84.5614 30.3343 83.2504L43.9976 48.2808Z"/>
<path d="M50.2417 34.0185C50.557 33.2834 51.2799 32.8069 52.0797 32.8069H72L67 43.9077H49.034C47.5979 43.9077 46.6299 42.4391 47.196 41.1193L50.2417 34.0185Z"/>
<path d="M118.206 3.76528C118.506 2.99812 119.245 2.49318 120.069 2.49318L140.277 2.49318L124.888 41.5393H106.375C104.966 41.5393 103.999 40.1229 104.512 38.8114L118.206 3.76528Z"/>
<path d="M34.2193 2.23987C34.5239 1.48592 35.2547 0.99145 36.0679 0.989096L56.167 0.930904L21.5595 86.9635L2.93789 87.0174C1.51752 87.0215 0.545653 85.5851 1.07773 84.2682L34.2193 2.23987Z"/>
<path d="M91.0777 2.18929C91.3821 1.43567 92.1124 0.941276 92.9252 0.938517L113.029 0.870272L78.3722 87.0257L59.7479 87.089C58.3271 87.0938 57.3545 85.6571 57.8867 84.3397L91.0777 2.18929Z"/>
<path d="M147.45 2.31181C147.755 1.55785 148.485 1.06339 149.299 1.06103L169.398 1.0028L134.79 87.0359L116.168 87.0898C114.748 87.0939 113.776 85.6576 114.308 84.3406L147.45 2.31181Z"/>
</svg>
