<svg xmlns="http://www.w3.org/2000/svg" fill="none" viewBox="0 0 16 16" stroke="none" width="1em" height="1em"><path fill="currentColor" d="M12.719 5.55a1.013 1.013 0 0 0-1.169-1.303c-.687.15-.9-.878-.222-1.025 1.566-.34 2.885 1.16 2.39 2.65-.212.662-1.212.337-1-.322m-6.006 8.41C3.39 13.96 0 12.352 0 9.7c0-1.384.875-2.981 2.384-4.49C5.5 2.093 8.734 2.055 7.81 5.03c-.125.41.385.178.385.188 2.484-1.05 4.39-.525 3.562 1.606-.115.294.035.34.26.41 4.24 1.321 1.087 6.724-5.303 6.724m4.49-4.572c-.17-1.739-2.454-2.936-5.107-2.677-2.65.27-4.65 1.885-4.481 3.625.168 1.741 2.453 2.938 5.106 2.678 2.65-.268 4.65-1.884 4.481-3.624m-.331-8.291c-.81.175-.525 1.366.26 1.197 2.259-.475 4.212 1.65 3.49 3.875-.231.756.91 1.156 1.169.375.997-3.119-1.722-6.122-4.92-5.447m-2.453 9.719c-.535 1.212-2.088 1.875-3.41 1.446-1.275-.409-1.812-1.668-1.259-2.803.553-1.106 1.972-1.73 3.231-1.409 1.313.338 1.972 1.569 1.438 2.766m-2.697-.938c-.403-.169-.938.01-1.188.403-.259.403-.134.875.27 1.063.409.187.962.01 1.221-.403.25-.41.116-.885-.303-1.063M6.74 9.46a.395.395 0 0 0-.447.17c-.09.159-.044.33.115.402.16.063.366-.01.457-.168.087-.163.034-.341-.125-.404"/></svg>