<svg xmlns="http://www.w3.org/2000/svg" fill="currentColor" class="icon" viewBox="0 0 1024 1024" stroke="none" width="1em" height="1em"><path d="M682.215 981.446c-25.532 0-42.553-17.021-42.553-42.554v-165.96c4.255-34.043-8.511-59.575-29.788-80.852-12.766-12.766-17.022-29.788-8.51-42.554 4.254-17.022 21.276-25.532 34.042-29.788 123.406-12.766 238.302-55.32 238.302-255.323 0-46.81-17.022-93.618-51.065-131.917-12.766-12.766-12.766-29.788-8.51-42.554 12.766-34.043 12.766-68.086 4.255-102.129-21.277 4.255-55.32 17.022-110.64 55.32-8.511 8.51-21.277 8.51-34.043 4.255-89.363-25.532-187.237-25.532-276.6 0-12.767 4.256-25.533 4.256-38.299-4.255-51.065-38.298-89.363-51.065-110.64-55.32-8.51 34.043-8.51 68.086 4.255 102.13 4.256 17.02 4.256 34.042-8.51 42.553-34.043 38.299-51.065 85.108-51.065 131.917 0 200.003 114.895 242.557 238.302 255.323 17.021 0 29.787 12.766 34.043 29.788 4.255 17.022 0 34.043-8.511 42.554-21.277 21.277-29.788 46.81-29.788 76.597v165.96c0 25.532-17.021 42.554-42.554 42.554s-42.553-17.022-42.553-42.554v-72.342c-127.662 21.277-182.982-51.064-221.28-97.874-17.022-21.276-29.788-38.298-46.81-42.553-21.277-4.256-38.298-29.788-29.787-51.065 4.255-21.277 29.787-38.299 51.064-29.788 42.554 12.766 68.086 42.554 93.619 72.342 34.043 46.809 63.83 80.852 153.194 63.83v-4.255c0-25.532 4.255-55.32 12.766-76.597C235.4 670.803 107.738 594.206 107.738 368.671c0-63.831 21.277-123.407 59.576-170.216C150.292 138.88 154.548 83.56 180.08 28.24q6.383-19.15 25.532-25.533c17.022-4.255 72.342-12.766 187.237 59.576 93.619-21.277 191.493-21.277 280.856 0C784.345-10.06 843.92-1.548 860.942 2.707q19.15 6.383 25.532 25.533 31.915 82.98 12.766 165.96c38.299 46.809 59.576 106.384 59.576 170.215 0 242.557-144.684 306.388-246.813 331.92 8.51 25.533 12.766 55.32 12.766 80.853v161.704c0 25.533-17.021 42.554-42.554 42.554"/></svg>